<svg width="200" height="176" viewBox="0 0 200 176" xmlns="http://www.w3.org/2000/svg">
  <!-- V字 -->
  <polygon points="30,30 50,30 78,125 63,125 40,60 23,125 7,125"
    fill="#69be42"/>
  <!-- S字 -->
  <path d="M110,50 C120,30 168,30 169,60 C169,80 110,70 159,110 C175,123 153,155 109,140 C116,135 135,150 155,137 C177,121 115,92 110,50 Z"
    fill="#19a3dd"/>
  <!-- S字ハイライト -->
  <path d="M135,44 Q145,35 160,44 Q170,51 164,58 Q158,65 146,55 Q141,51 135,44 Z"
    fill="#76cdf1" opacity="0.5"/>
</svg>
