<?xml version="1.0" encoding="UTF-8"?>
<svg id="_レイヤー_3" data-name="レイヤー_3" xmlns="http://www.w3.org/2000/svg" xmlns:xlink="http://www.w3.org/1999/xlink" version="1.1" viewBox="0 0 354.33 269.29">
  <!-- Generator: Adobe Illustrator 30.3.0, SVG Export Plug-In . SVG Version: 2.1.3 Build 182)  -->
  <defs>
    <style>
      .st0 {
        fill: url(#_名称未設定グラデーション_18);
      }

      .st1 {
        fill: url(#_名称未設定グラデーション_50);
      }
    </style>
    <linearGradient id="_名称未設定グラデーション_18" data-name="名称未設定グラデーション 18" x1="124" y1="234.75" x2="124" y2="10.35" gradientUnits="userSpaceOnUse">
      <stop offset="0" stop-color="#2c893a"/>
      <stop offset="1" stop-color="#7fbf34"/>
    </linearGradient>
    <linearGradient id="_名称未設定グラデーション_50" data-name="名称未設定グラデーション 50" x1="153.27" y1="141.08" x2="341.15" y2="141.08" gradientUnits="userSpaceOnUse">
      <stop offset="0" stop-color="#105998"/>
      <stop offset="1" stop-color="#35a7d2"/>
    </linearGradient>
  </defs>
  <path class="st0" d="M151.71,224.77l-3.87,9.98h-48.81L13.18,10.36h55.41l83.12,214.41ZM159.77,203.99L234.83,10.35h-56.55l-46.48,121.49,27.97,72.14Z"/>
  <path class="st1" d="M272,208.21h-99.22l-19.51,50.73h121.46c41.02,0,66.42-29.85,66.42-67.51s-20.86-51.12-37.25-58.15c-16.39-7.02-61.04-23.5-61.04-23.5-10.37-4.6-17.1-9.28-17.1-18.94s6.05-15.89,21.17-15.89h74.43l17.17-51.72h-93.46l-46.76,122.34c4.32,4.01,11.37,6.86,20.86,10.55,20.05,7.79,47.75,17.55,57.51,21.26,9.76,3.71,10.82,10.85,10.82,15.54,0,6.9-5.2,15.29-15.5,15.29Z"/>
</svg>