<?xml version="1.0" encoding="utf-8"?>
<!-- Generator: Adobe Illustrator 30.3.0, SVG Export Plug-In . SVG Version: 9.03 Build 0)  -->
<!DOCTYPE svg PUBLIC "-//W3C//DTD SVG 1.1//EN" "http://www.w3.org/Graphics/SVG/1.1/DTD/svg11.dtd" [
	<!ENTITY ns_extend "http://ns.adobe.com/Extensibility/1.0/">
	<!ENTITY ns_ai "http://ns.adobe.com/AdobeIllustrator/10.0/">
	<!ENTITY ns_graphs "http://ns.adobe.com/Graphs/1.0/">
	<!ENTITY ns_vars "http://ns.adobe.com/Variables/1.0/">
	<!ENTITY ns_imrep "http://ns.adobe.com/ImageReplacement/1.0/">
	<!ENTITY ns_sfw "http://ns.adobe.com/SaveForWeb/1.0/">
	<!ENTITY ns_custom "http://ns.adobe.com/GenericCustomNamespace/1.0/">
	<!ENTITY ns_adobe_xpath "http://ns.adobe.com/XPath/1.0/">
]>
<svg version="1.1" id="レイヤー_1" xmlns:x="&ns_extend;" xmlns:i="&ns_ai;" xmlns:graph="&ns_graphs;"
	 xmlns="http://www.w3.org/2000/svg" xmlns:xlink="http://www.w3.org/1999/xlink" x="0px" y="0px" viewBox="0 0 1048.82 155.91"
	 style="enable-background:new 0 0 1048.82 155.91;" xml:space="preserve">
<style type="text/css">
	.st0{fill:url(#SVGID_1_);}
	.st1{fill:url(#SVGID_00000150099378176692877240000009015112843140323456_);}
	.st2{fill:url(#SVGID_00000166665008391466443020000003927355805259131561_);}
	.st3{fill:url(#SVGID_00000125571427139487698970000009476805024244904365_);}
	.st4{fill:url(#SVGID_00000075141835895598844110000015859928853786999705_);}
	.st5{fill:url(#SVGID_00000072992682903659826790000010949628105322037907_);}
	.st6{fill:url(#SVGID_00000101823721437329970200000005113903907858515596_);}
	.st7{fill:url(#SVGID_00000142170902585919602660000016964393543989359494_);}
	.st8{fill:url(#SVGID_00000168831248185901672860000005530403678927407747_);}
	.st9{fill:url(#SVGID_00000060725075760515641940000006060422502571679886_);}
	.st10{fill:url(#SVGID_00000001655536099014399900000009021976983145667244_);}
	.st11{fill:url(#SVGID_00000059269384988619827590000014561339074698813346_);}
	.st12{fill:url(#SVGID_00000136410510235895841090000007298859514566134912_);}
</style>
<switch>
	<foreignObject requiredExtensions="&ns_ai;" x="0" y="0" width="1" height="1">
		<i:aipgfRef  xlink:href="#adobe_illustrator_pgf">
		</i:aipgfRef>
	</foreignObject>
	<g i:extraneous="self">
		<g id="レイヤー_2_00000100384214837381349480000015317740342505913513_">
		</g>
		<g id="レイヤー_3">
		</g>
		<g>
			<g>
				<linearGradient id="SVGID_1_" gradientUnits="userSpaceOnUse" x1="228.7088" y1="144.3182" x2="228.7088" y2="13.4672">
					<stop  offset="0" style="stop-color:#105998"/>
					<stop  offset="1" style="stop-color:#35A7D2"/>
				</linearGradient>
				<path class="st0" d="M74.66,103.15l25.57-89.68h25.76L84.43,143.19H64.69L23.33,13.47h25.76L74.66,103.15z"/>
				
					<linearGradient id="SVGID_00000168817234863327312320000012858534275912116405_" gradientUnits="userSpaceOnUse" x1="228.7088" y1="144.3182" x2="228.7088" y2="13.4672">
					<stop  offset="0" style="stop-color:#105998"/>
					<stop  offset="1" style="stop-color:#35A7D2"/>
				</linearGradient>
				<path style="fill:url(#SVGID_00000168817234863327312320000012858534275912116405_);" d="M159.74,32.08h-23.69V13.47h23.69
					V32.08z M159.55,143.19h-23.12V45.43h23.12V143.19z"/>
				
					<linearGradient id="SVGID_00000017514854326721188140000000515916449837475736_" gradientUnits="userSpaceOnUse" x1="228.7088" y1="144.3182" x2="228.7088" y2="13.4672">
					<stop  offset="0" style="stop-color:#105998"/>
					<stop  offset="1" style="stop-color:#35A7D2"/>
				</linearGradient>
				<path style="fill:url(#SVGID_00000017514854326721188140000000515916449837475736_);" d="M213.21,107.47l18.8-62.04h24.63
					l-34.03,97.76h-19.18l-33.84-97.76h24.63L213.21,107.47z"/>
				
					<linearGradient id="SVGID_00000101809889417067707350000009558783555670308764_" gradientUnits="userSpaceOnUse" x1="228.7088" y1="144.3182" x2="228.7088" y2="13.4672">
					<stop  offset="0" style="stop-color:#105998"/>
					<stop  offset="1" style="stop-color:#35A7D2"/>
				</linearGradient>
				<path style="fill:url(#SVGID_00000101809889417067707350000009558783555670308764_);" d="M266.45,113.49V13.47h23.31v98.51
					c0,3.95,0.75,6.77,2.26,8.46c1.32,1.69,3.76,2.63,6.96,2.63h7.9v20.12h-10.72c-9.4,0-16.73-2.63-21.81-7.71
					C269.08,130.41,266.45,123.07,266.45,113.49z"/>
				
					<linearGradient id="SVGID_00000159468958354324743130000012014588446532022912_" gradientUnits="userSpaceOnUse" x1="228.7088" y1="144.3182" x2="228.7088" y2="13.4672">
					<stop  offset="0" style="stop-color:#105998"/>
					<stop  offset="1" style="stop-color:#35A7D2"/>
				</linearGradient>
				<path style="fill:url(#SVGID_00000159468958354324743130000012014588446532022912_);" d="M340.97,32.08h-23.69V13.47h23.69
					V32.08z M340.78,143.19h-23.12V45.43h23.12V143.19z"/>
				
					<linearGradient id="SVGID_00000124877250775237375790000002952353171803251891_" gradientUnits="userSpaceOnUse" x1="228.7088" y1="144.3182" x2="228.7088" y2="13.4672">
					<stop  offset="0" style="stop-color:#105998"/>
					<stop  offset="1" style="stop-color:#35A7D2"/>
				</linearGradient>
				<path style="fill:url(#SVGID_00000124877250775237375790000002952353171803251891_);" d="M355.12,103.33V85.1
					c0-13.91,3.57-24.25,10.72-30.83c6.96-6.58,16.73-9.96,28.95-9.96s21.81,3.38,28.76,9.96s10.53,16.92,10.53,30.83v18.24
					c0,14.1-3.57,24.44-10.53,31.02s-16.54,9.96-28.76,9.96s-22-3.38-28.95-9.96C358.7,127.77,355.12,117.43,355.12,103.33z
					 M394.79,64.98c-11.09,0-16.54,6.77-16.54,20.49v17.67c0,13.72,5.45,20.49,16.54,20.49c10.72,0,16.17-6.77,16.17-20.49V85.47
					C410.96,71.75,405.51,64.98,394.79,64.98z"/>
			</g>
		</g>
		<g>
			<g>
				
					<linearGradient id="SVGID_00000116235360548672131870000015620767292955146158_" gradientUnits="userSpaceOnUse" x1="759.5283" y1="144.3182" x2="759.5283" y2="11.5873">
					<stop  offset="0" style="stop-color:#2C893A"/>
					<stop  offset="1" style="stop-color:#7FBF34"/>
				</linearGradient>
				<path style="fill:url(#SVGID_00000116235360548672131870000015620767292955146158_);" d="M493.57,103.71h23.31
					c0.94,7.14,3.2,12.22,6.96,15.04c3.57,3.01,9.02,4.51,16.36,4.51c13.91,0,20.87-5.64,20.87-17.11c0-5.08-1.32-9.02-4.14-11.84
					c-2.82-2.63-7.14-4.51-13.16-5.45l-12.22-2.07c-23.5-3.95-35.16-15.98-35.16-36.1c0-12.03,3.95-21.62,12.03-28.58
					c7.9-6.96,18.42-10.53,31.58-10.53c12.78,0,22.94,3.38,30.46,10.15c7.33,6.77,11.66,16.36,12.6,28.58h-23.69
					c-0.38-6.2-2.26-10.9-5.45-13.72c-3.2-2.82-8.08-4.32-14.29-4.32c-6.39,0-11.28,1.5-14.48,4.32c-3.2,3.01-4.89,7.14-4.89,12.22
					c0,4.51,1.5,8.08,4.32,10.72c2.82,2.63,7.33,4.51,13.54,5.64l13.72,2.44c22.37,3.95,33.46,16.17,33.46,36.47
					c0,12.97-4.14,22.94-12.41,29.89c-8.46,6.96-19.74,10.34-33.84,10.34c-13.91,0-24.82-3.57-32.52-10.53
					C498.83,126.83,494.51,116.87,493.57,103.71z"/>
				
					<linearGradient id="SVGID_00000057853465296343914290000010708288296646517126_" gradientUnits="userSpaceOnUse" x1="759.5283" y1="144.3182" x2="759.5283" y2="11.5873">
					<stop  offset="0" style="stop-color:#2C893A"/>
					<stop  offset="1" style="stop-color:#7FBF34"/>
				</linearGradient>
				<path style="fill:url(#SVGID_00000057853465296343914290000010708288296646517126_);" d="M640.3,123.45h7.33v19.74h-11.09
					c-8.84,0-15.98-2.63-21.06-7.71c-5.26-5.08-7.9-11.84-7.9-20.49V61.78h-13.54V45.43h13.54V26.25l23.12-8.08v27.26h18.8v16.36
					h-18.8v51.7C630.71,120.07,633.91,123.45,640.3,123.45z"/>
				
					<linearGradient id="SVGID_00000149371867727730984740000010486407146183496598_" gradientUnits="userSpaceOnUse" x1="759.5283" y1="144.3182" x2="759.5283" y2="11.5873">
					<stop  offset="0" style="stop-color:#2C893A"/>
					<stop  offset="1" style="stop-color:#7FBF34"/>
				</linearGradient>
				<path style="fill:url(#SVGID_00000149371867727730984740000010486407146183496598_);" d="M735.58,78.89v64.3h-22.56v-8.46
					c-3.2,3.38-6.58,5.83-9.96,7.33c-3.57,1.5-7.9,2.26-13.16,2.26c-9.96,0-17.86-2.63-23.31-8.08s-8.27-12.78-8.27-22.37
					c0-8.84,3.01-15.79,8.84-20.87s14.1-7.52,24.63-7.52h20.68v-7.71c0-10.34-5.26-15.6-15.6-15.6c-4.32,0-7.9,1.13-10.34,3.2
					c-2.63,2.26-3.95,5.26-3.95,8.84v0.56h-21.62V74c0-9.21,3.2-16.36,9.78-21.81c6.58-5.26,15.23-7.9,26.32-7.9
					c12.41,0,22,2.82,28.58,8.65C732.2,58.78,735.58,67.42,735.58,78.89z M712.46,108.41v-6.96h-16.92
					c-9.78,0-14.66,3.95-14.66,11.84c0,8.08,4.7,12.22,14.29,12.22c6.2,0,10.53-1.5,13.35-4.32
					C711.14,118.37,712.46,114.24,712.46,108.41z"/>
				
					<linearGradient id="SVGID_00000174581386005867705470000007439232316748383106_" gradientUnits="userSpaceOnUse" x1="759.5283" y1="144.3182" x2="759.5283" y2="11.5873">
					<stop  offset="0" style="stop-color:#2C893A"/>
					<stop  offset="1" style="stop-color:#7FBF34"/>
				</linearGradient>
				<path style="fill:url(#SVGID_00000174581386005867705470000007439232316748383106_);" d="M774.42,55.58
					c2.44-4.14,5.64-7.14,9.59-9.21c3.95-2.07,8.46-3.01,13.54-3.01c2.82,0,5.45,0.19,7.9,0.75v21.81
					c-4.32-1.32-8.27-2.07-11.66-2.07c-5.64,0-10.15,1.69-13.54,5.26c-3.57,3.57-5.26,8.84-5.26,15.42v58.66h-23.31V45.43h22.75
					V55.58z"/>
				
					<linearGradient id="SVGID_00000036214303097756856610000011460914465778705855_" gradientUnits="userSpaceOnUse" x1="759.5283" y1="144.3182" x2="759.5283" y2="11.5873">
					<stop  offset="0" style="stop-color:#2C893A"/>
					<stop  offset="1" style="stop-color:#7FBF34"/>
				</linearGradient>
				<path style="fill:url(#SVGID_00000036214303097756856610000011460914465778705855_);" d="M859.69,123.45h7.33v19.74h-11.09
					c-8.84,0-15.98-2.63-21.06-7.71c-5.26-5.08-7.9-11.84-7.9-20.49V61.78h-13.54V45.43h13.54V26.25l23.12-8.08v27.26h18.8v16.36
					h-18.8v51.7C850.1,120.07,853.3,123.45,859.69,123.45z"/>
				
					<linearGradient id="SVGID_00000122696695078732810830000002987447378953224839_" gradientUnits="userSpaceOnUse" x1="759.5283" y1="144.3182" x2="759.5283" y2="11.5873">
					<stop  offset="0" style="stop-color:#2C893A"/>
					<stop  offset="1" style="stop-color:#7FBF34"/>
				</linearGradient>
				<path style="fill:url(#SVGID_00000122696695078732810830000002987447378953224839_);" d="M905.43,119.5
					c3.2,3.2,7.9,4.7,13.91,4.7c4.7,0,8.27-0.94,10.9-3.01c2.63-1.88,4.14-4.51,4.32-8.08l0.19-0.56h22.18v0.94
					c0,9.21-3.38,16.73-10.34,22.37c-6.96,5.64-16.36,8.46-28.2,8.46c-12.6,0-22.56-3.57-29.89-10.9
					c-7.33-7.14-11.09-18.24-11.09-33.28V88.29c0-14.66,3.57-25.76,10.72-33.09c7.14-7.33,16.92-10.9,29.52-10.9
					c12.22,0,22,3.76,29.33,11.09c7.14,7.33,10.72,18.42,10.72,32.9v12.97h-57.15v2.63C900.54,111.23,902.23,116.31,905.43,119.5z
					 M900.54,84.72v0.56h33.84v-2.44c0-12.41-5.64-18.61-16.73-18.61c-5.45,0-9.78,1.5-12.6,4.7
					C902.05,72.12,900.54,77.39,900.54,84.72z"/>
				
					<linearGradient id="SVGID_00000122713306512514847880000014783306090684122771_" gradientUnits="userSpaceOnUse" x1="759.5283" y1="144.3182" x2="759.5283" y2="11.5873">
					<stop  offset="0" style="stop-color:#2C893A"/>
					<stop  offset="1" style="stop-color:#7FBF34"/>
				</linearGradient>
				<path style="fill:url(#SVGID_00000122713306512514847880000014783306090684122771_);" d="M994.47,55.58
					c2.44-4.14,5.64-7.14,9.59-9.21c3.95-2.07,8.46-3.01,13.54-3.01c2.82,0,5.45,0.19,7.9,0.75v21.81
					c-4.32-1.32-8.27-2.07-11.66-2.07c-5.64,0-10.15,1.69-13.54,5.26c-3.57,3.57-5.26,8.84-5.26,15.42v58.66h-23.31V45.43h22.75
					V55.58z"/>
			</g>
		</g>
	</g>
</switch>

</svg>
