<svg xmlns="http://www.w3.org/2000/svg" viewBox="0 0 600 340">
  <defs>
    <linearGradient id="gradBlue" x1="240.75" y1="153.49" x2="240.75" y2="15.76" gradientUnits="userSpaceOnUse">
      <stop offset="0" style="stop-color:#105998"/>
      <stop offset="1" style="stop-color:#35A7D2"/>
    </linearGradient>
    <linearGradient id="gradGreen" x1="304.51" y1="317.70" x2="304.51" y2="177.99" gradientUnits="userSpaceOnUse">
      <stop offset="0" style="stop-color:#2C893A"/>
      <stop offset="1" style="stop-color:#7FBF34"/>
    </linearGradient>
  </defs>

  <g>
    <path fill="url(#gradBlue)" d="M78.59,110.16l26.92-94.4h27.12L88.87,152.31H68.1L24.56,15.76h27.12L78.59,110.16z"/>
    <path fill="url(#gradBlue)" d="M168.15,35.35h-24.94V15.76h24.94V35.35z M167.95,152.31h-24.34V49.4h24.34V152.31z"/>
    <path fill="url(#gradBlue)" d="M224.43,114.71l19.79-65.31h25.93l-35.82,104.49h-20.19l-35.62-102.91h25.93L224.43,114.71z"/>
    <path fill="url(#gradBlue)" d="M280.47,121.04V15.76h24.54v103.7c0,4.16,0.79,7.13,2.38,8.91c1.39,1.78,3.96,2.77,7.33,2.77h8.32v21.18h-11.28c-9.89,0-17.61-2.77-22.96-8.12C283.24,138.85,280.47,131.13,280.47,121.04z"/>
    <path fill="url(#gradBlue)" d="M358.92,35.35h-24.94V15.76h24.94V35.35z M358.72,152.31h-24.34V49.4h24.34V152.31z"/>
    <path fill="url(#gradBlue)" d="M373.81,110.35V91.14c0-14.64,3.76-25.53,11.28-32.45c7.33-6.93,17.61-10.48,30.47-10.48s22.96,3.56,30.27,10.48s11.08,17.81,11.08,32.45v19.2c0,14.84-3.76,25.73-11.08,32.65s-17.41,10.48-30.27,10.48s-23.16-3.56-30.47-10.48C377.58,136.08,373.81,125.19,373.81,110.35z M415.57,69.98c-11.67,0-17.41,7.13-17.41,21.57v18.6c0,14.44,5.74,21.57,17.41,21.57c11.28,0,17.02-7.13,17.02-21.57v-18.6C432.59,77.11,426.85,69.98,415.57,69.98z"/>
  </g>

  <g>
    <path fill="url(#gradGreen)" d="M24.56,274.95h24.54c0.99,7.52,3.37,12.86,7.33,15.83c3.76,3.17,9.5,4.75,17.22,4.75c14.64,0,21.97-5.94,21.97-18.01c0-5.35-1.39-9.5-4.36-12.46c-2.97-2.77-7.52-4.75-13.85-5.74l-12.86-2.18c-24.74-4.16-37.01-16.82-37.01-38c0-12.66,4.16-22.76,12.66-30.08c8.32-7.33,19.39-11.08,33.24-11.08c13.45,0,24.15,3.56,32.06,10.68c7.72,7.13,12.27,17.22,13.26,30.08h-24.94c-0.4-6.53-2.38-11.47-5.74-14.44c-3.37-2.97-8.51-4.55-15.04-4.55c-6.73,0-11.87,1.58-15.24,4.55c-3.37,3.17-5.15,7.52-5.15,12.86c0,4.75,1.58,8.51,4.55,11.28c2.97,2.77,7.72,4.75,14.25,5.94l14.44,2.57c23.55,4.16,35.22,17.02,35.22,38.39c0,13.65-4.36,24.15-13.06,31.46s-20.78,10.88-35.62,10.88c-14.64,0-26.13-3.76-34.23-11.08C30.09,299.29,25.55,288.8,24.56,274.95z"/>
    <path fill="url(#gradGreen)" d="M179.01,295.74h7.72v20.78h-11.67c-9.31,0-16.82-2.77-22.17-8.12c-5.54-5.35-8.32-12.46-8.32-21.57V230.83h-14.25v-17.21h14.25v-20.19l24.34-8.51v28.7h19.79v17.21h-19.79v54.42C168.92,292.18,172.28,295.74,179.01,295.74z"/>
    <path fill="url(#gradGreen)" d="M279.3,248.83v67.69h-23.75v-8.91c-3.37,3.56-6.93,6.14-10.49,7.72c-3.76,1.58-8.32,2.38-13.85,2.38c-10.48,0-18.8-2.77-24.54-8.51c-5.74-5.74-8.71-13.45-8.71-23.55c0-9.31,3.17-16.62,9.31-21.97s14.84-7.92,25.93-7.92h21.77v-8.11c0-10.88-5.54-16.42-16.42-16.42c-4.55,0-8.32,1.19-10.88,3.37c-2.77,2.38-4.16,5.54-4.16,9.31v0.59h-22.76V243.68c0-9.69,3.37-17.22,10.29-22.96c6.93-5.54,16.03-8.32,27.71-8.32c13.06,0,23.16,2.97,30.08,9.11C275.75,227.66,279.3,236.76,279.3,248.83z M254.97,279.91v-7.33h-17.82c-10.3,0-15.43,4.16-15.43,12.46c0,8.51,4.95,12.86,15.04,12.86c6.53,0,11.08-1.58,14.05-4.55C253.58,290.39,254.97,286.04,254.97,279.91z"/>
    <path fill="url(#gradGreen)" d="M320.19,224.3c2.57-4.36,5.94-7.52,10.1-9.69c4.16-2.18,8.91-3.17,14.25-3.17c2.97,0,5.74,0.2,8.32,0.79v22.96c-4.55-1.39-8.71-2.18-12.27-2.18c-5.94,0-10.68,1.78-14.25,5.54c-3.76,3.76-5.54,9.31-5.54,16.23v61.75h-24.54V213.6h23.95V224.3z"/>
    <path fill="url(#gradGreen)" d="M409.95,295.74h7.72v20.78H406c-9.31,0-16.82-2.77-22.17-8.12c-5.54-5.35-8.32-12.46-8.32-21.57V230.83h-14.25v-17.21h14.25v-20.19l24.34-8.51v28.7h19.79v17.21h-19.79v54.42C399.85,292.18,403.22,295.74,409.95,295.74z"/>
    <path fill="url(#gradGreen)" d="M458.09,291.58c3.37,3.37,8.32,4.95,14.64,4.95c4.95,0,8.71-0.99,11.47-3.17c2.77-1.98,4.36-4.75,4.55-8.51l0.2-0.59h23.35v0.99c0,9.69-3.56,17.61-10.88,23.55c-7.33,5.94-17.22,8.91-29.68,8.91c-13.26,0-23.75-3.76-31.46-11.47c-7.72-7.52-11.67-19.2-11.67-35.03v-13.66c0-15.43,3.76-27.12,11.28-34.84c7.52-7.72,17.81-11.47,31.07-11.47c12.86,0,23.16,3.96,30.87,11.67c7.52,7.72,11.28,19.39,11.28,34.64v13.65h-60.16v2.77C452.95,282.87,454.73,288.22,458.09,291.58z M452.95,254.97v0.59h35.62v-2.57c0-13.06-5.94-19.59-17.61-19.59c-5.74,0-10.3,1.58-13.26,4.95C454.54,241.71,452.95,247.25,452.95,254.97z"/>
    <path fill="url(#gradGreen)" d="M551.82,224.3c2.57-4.36,5.94-7.52,10.1-9.69c4.16-2.18,8.91-3.17,14.25-3.17c2.97,0,5.74,0.2,8.32,0.79v22.96c-4.55-1.39-8.71-2.18-12.27-2.18c-5.94,0-10.68,1.78-14.25,5.54c-3.76,3.76-5.54,9.31-5.54,16.23v61.75h-24.54V213.6h23.95V224.3z"/>
  </g>
</svg>
