<svg xmlns="http://www.w3.org/2000/svg" viewBox="0 0 1424.02 283.46" shape-rendering="geometricPrecision">
  <title>VS Vivlio Starter Logo</title>
  <defs>
    <linearGradient id="vsGradGreen" x1="124" y1="234.75" x2="124" y2="10.35" gradientUnits="userSpaceOnUse">
      <stop offset="0" stop-color="#2c893a"/>
      <stop offset="1" stop-color="#7fbf34"/>
    </linearGradient>
    <linearGradient id="vsGradBlue" x1="153.27" y1="141.08" x2="341.15" y2="141.08" gradientUnits="userSpaceOnUse">
      <stop offset="0" stop-color="#105998"/>
      <stop offset="1" stop-color="#35a7d2"/>
    </linearGradient>
    <linearGradient id="gradBlue" x1="0" y1="143.19" x2="0" y2="13.47" gradientUnits="userSpaceOnUse">
      <stop offset="0" style="stop-color:#105998"/>
      <stop offset="1" style="stop-color:#35A7D2"/>
    </linearGradient>
    <linearGradient id="gradGreen" x1="0" y1="143.19" x2="0" y2="13.47" gradientUnits="userSpaceOnUse">
      <stop offset="0" style="stop-color:#2C893A"/>
      <stop offset="1" style="stop-color:#7FBF34"/>
    </linearGradient>
  </defs>

  <!-- VS logo (outlined) -->
  <g transform="translate(0, 7.085)">
    <path fill="url(#vsGradGreen)" d="M151.71,224.77l-3.87,9.98h-48.81L13.18,10.36h55.41l83.12,214.41ZM159.77,203.99L234.83,10.35h-56.55l-46.48,121.49,27.97,72.14Z"/>
    <path fill="url(#vsGradBlue)" d="M272,208.21h-99.22l-19.51,50.73h121.46c41.02,0,66.42-29.85,66.42-67.51s-20.86-51.12-37.25-58.15c-16.39-7.02-61.04-23.5-61.04-23.5-10.37-4.6-17.1-9.28-17.1-18.94s6.05-15.89,21.17-15.89h74.43l17.17-51.72h-93.46l-46.76,122.34c4.32,4.01,11.37,6.86,20.86,10.55,20.05,7.79,47.75,17.55,57.51,21.26,9.76,3.71,10.82,10.85,10.82,15.54,0,6.9-5.2,15.29-15.5,15.29Z"/>
  </g>

  <!-- Vivlio Starter outline paths -->
  <g transform="translate(374.33, 63.775)">
    <path fill="url(#gradBlue)" d="M74.66,103.15l25.57-89.68h25.76L84.43,143.19H64.69L23.33,13.47h25.76L74.66,103.15z"/>
    <path fill="url(#gradBlue)" d="M159.74,32.08h-23.69V13.47h23.69V32.08z M159.55,143.19h-23.12V45.43h23.12V143.19z"/>
    <path fill="url(#gradBlue)" d="M213.21,107.47l18.8-62.04h24.63l-34.03,97.76h-19.18l-33.84-97.76h24.63L213.21,107.47z"/>
    <path fill="url(#gradBlue)" d="M266.45,113.49V13.47h23.31v98.51c0,3.95,0.75,6.77,2.26,8.46c1.32,1.69,3.76,2.63,6.96,2.63h7.9v20.12h-10.72c-9.4,0-16.73-2.63-21.81-7.71C269.08,130.41,266.45,123.07,266.45,113.49z"/>
    <path fill="url(#gradBlue)" d="M340.97,32.08h-23.69V13.47h23.69V32.08z M340.78,143.19h-23.12V45.43h23.12V143.19z"/>
    <path fill="url(#gradBlue)" d="M355.12,103.33V85.1c0-13.91,3.57-24.25,10.72-30.83c6.96-6.58,16.73-9.96,28.95-9.96s21.81,3.38,28.76,9.96s10.53,16.92,10.53,30.83v18.24c0,14.1-3.57,24.44-10.53,31.02s-16.54,9.96-28.76,9.96s-22-3.38-28.95-9.96C358.7,127.77,355.12,117.43,355.12,103.33z M394.79,64.98c-11.09,0-16.54,6.77-16.54,20.49v17.67c0,13.72,5.45,20.49,16.54,20.49c10.72,0,16.17-6.77,16.17-20.49V85.47C410.96,71.75,405.51,64.98,394.79,64.98z"/>
    <path fill="url(#gradGreen)" d="M493.57,103.71h23.31c0.94,7.14,3.2,12.22,6.96,15.04c3.57,3.01,9.02,4.51,16.36,4.51c13.91,0,20.87-5.64,20.87-17.11c0-5.08-1.32-9.02-4.14-11.84c-2.82-2.63-7.14-4.51-13.16-5.45l-12.22-2.07c-23.5-3.95-35.16-15.98-35.16-36.1c0-12.03,3.95-21.62,12.03-28.58c7.9-6.96,18.42-10.53,31.58-10.53c12.78,0,22.94,3.38,30.46,10.15c7.33,6.77,11.66,16.36,12.6,28.58h-23.69c-0.38-6.2-2.26-10.9-5.45-13.72c-3.2-2.82-8.08-4.32-14.29-4.32c-6.39,0-11.28,1.5-14.48,4.32c-3.2,3.01-4.89,7.14-4.89,12.22c0,4.51,1.5,8.08,4.32,10.72c2.82,2.63,7.33,4.51,13.54,5.64l13.72,2.44c22.37,3.95,33.46,16.17,33.46,36.47c0,12.97-4.14,22.94-12.41,29.89c-8.46,6.96-19.74,10.34-33.84,10.34c-13.91,0-24.82-3.57-32.52-10.53C498.83,126.83,494.51,116.87,493.57,103.71z"/>
    <path fill="url(#gradGreen)" d="M640.3,123.45h7.33v19.74h-11.09c-8.84,0-15.98-2.63-21.06-7.71c-5.26-5.08-7.9-11.84-7.9-20.49V61.78h-13.54V45.43h13.54V26.25l23.12-8.08v27.26h18.8v16.36h-18.8v51.7C630.71,120.07,633.91,123.45,640.3,123.45z"/>
    <path fill="url(#gradGreen)" d="M735.58,78.89v64.3h-22.56v-8.46c-3.2,3.38-6.58,5.83-9.96,7.33c-3.57,1.5-7.9,2.26-13.16,2.26c-9.96,0-17.86-2.63-23.31-8.08s-8.27-12.78-8.27-22.37c0-8.84,3.01-15.79,8.84-20.87s14.1-7.52,24.63-7.52h20.68v-7.71c0-10.34-5.26-15.6-15.6-15.6c-4.32,0-7.9,1.13-10.34,3.2c-2.63,2.26-3.95,5.26-3.95,8.84v0.56h-21.62V74c0-9.21,3.2-16.36,9.78-21.81c6.58-5.26,15.23-7.9,26.32-7.9c12.41,0,22,2.82,28.58,8.65C732.2,58.78,735.58,67.42,735.58,78.89z M712.46,108.41v-6.96h-16.92c-9.78,0-14.66,3.95-14.66,11.84c0,8.08,4.7,12.22,14.29,12.22c6.2,0,10.53-1.5,13.35-4.32C711.14,118.37,712.46,114.24,712.46,108.41z"/>
    <path fill="url(#gradGreen)" d="M774.42,55.58c2.44-4.14,5.64-7.14,9.59-9.21c3.95-2.07,8.46-3.01,13.54-3.01c2.82,0,5.45,0.19,7.9,0.75v21.81c-4.32-1.32-8.27-2.07-11.66-2.07c-5.64,0-10.15,1.69-13.54,5.26c-3.57,3.57-5.26,8.84-5.26,15.42v58.66h-23.31V45.43h22.75V55.58z"/>
    <path fill="url(#gradGreen)" d="M859.69,123.45h7.33v19.74h-11.09c-8.84,0-15.98-2.63-21.06-7.71c-5.26-5.08-7.9-11.84-7.9-20.49V61.78h-13.54V45.43h13.54V26.25l23.12-8.08v27.26h18.8v16.36h-18.8v51.7C850.1,120.07,853.3,123.45,859.69,123.45z"/>
    <path fill="url(#gradGreen)" d="M905.43,119.5c3.2,3.2,7.9,4.7,13.91,4.7c4.7,0,8.27-0.94,10.9-3.01c2.63-1.88,4.14-4.51,4.32-8.08l0.19-0.56h22.18v0.94c0,9.21-3.38,16.73-10.34,22.37c-6.96,5.64-16.36,8.46-28.2,8.46c-12.6,0-22.56-3.57-29.89-10.9c-7.33-7.14-11.09-18.24-11.09-33.28V88.29c0-14.66,3.57-25.76,10.72-33.09c7.14-7.33,16.92-10.9,29.52-10.9c12.22,0,22,3.76,29.33,11.09c7.14,7.33,10.72,18.42,10.72,32.9v12.97h-57.15v2.63C900.54,111.23,902.23,116.31,905.43,119.5z M900.54,84.72v0.56h33.84v-2.44c0-12.41-5.64-18.61-16.73-18.61c-5.45,0-9.78,1.5-12.6,4.7C902.05,72.12,900.54,77.39,900.54,84.72z"/>
    <path fill="url(#gradGreen)" d="M994.47,55.58c2.44-4.14,5.64-7.14,9.59-9.21c3.95-2.07,8.46-3.01,13.54-3.01c2.82,0,5.45,0.19,7.9,0.75v21.81c-4.32-1.32-8.27-2.07-11.66-2.07c-5.64,0-10.15,1.69-13.54,5.26c-3.57,3.57-5.26,8.84-5.26,15.42v58.66h-23.31V45.43h22.75V55.58z"/>
  </g>
</svg>
