<svg xmlns="http://www.w3.org/2000/svg" viewBox="0 0 1200 180">
  <defs>
    <linearGradient id="gradBlue" x1="261.647" y1="165.923" x2="261.647" y2="16.227" gradientUnits="userSpaceOnUse">
      <stop offset="0" style="stop-color:#105998"/>
      <stop offset="1" style="stop-color:#35A7D2"/>
    </linearGradient>
    <linearGradient id="gradGreen" x1="868.916" y1="165.923" x2="868.916" y2="14.076" gradientUnits="userSpaceOnUse">
      <stop offset="0" style="stop-color:#2C893A"/>
      <stop offset="1" style="stop-color:#7FBF34"/>
    </linearGradient>
  </defs>
  <path fill="url(#gradBlue)" d="M85.41,118.83l29.25-102.59h29.47L96.59,164.63H74.01L26.69,16.23h29.47L85.41,118.83z"/>
  <path fill="url(#gradBlue)" d="M182.75,37.52h-27.1V16.23h27.1V37.52z M182.53,164.63h-26.45V52.8h26.45V164.63z"/>
  <path fill="url(#gradBlue)" d="M243.92,123.77l21.51-70.97h28.18l-38.93,111.84h-21.94l-38.71-111.84h28.18L243.92,123.77z"/>
  <path fill="url(#gradBlue)" d="M304.82,130.66V16.23h26.67v112.7c0,4.52,0.86,7.75,2.59,9.68c1.51,1.93,4.3,3.01,7.96,3.01h9.04v23.02h-12.26c-10.75,0-19.14-3.01-24.95-8.82C307.83,150.01,304.82,141.61,304.82,130.66z"/>
  <path fill="url(#gradBlue)" d="M390.08,37.52h-27.1V16.23h27.1V37.52z M389.86,164.63h-26.45V52.8h26.45V164.63z"/>
  <path fill="url(#gradBlue)" d="M406.27,119.03V98.18c0-15.91,4.08-27.74,12.26-35.27c7.96-7.53,19.14-11.4,33.12-11.4s24.95,3.87,32.9,11.4s12.05,19.36,12.05,35.27v20.87c0,16.13-4.08,27.96-12.05,35.49s-18.92,11.4-32.9,11.4s-25.17-3.87-33.12-11.4C410.36,146.99,406.27,135.16,406.27,119.03z M451.65,75.16c-12.69,0-18.92,7.75-18.92,23.44v20.21c0,15.7,6.24,23.44,18.92,23.44c12.26,0,18.5-7.75,18.5-23.44V98.6c0-15.7-6.24-23.44-18.5-23.44z"/>
  <path fill="url(#gradGreen)" d="M564.65,119.46h26.67c1.08,8.17,3.66,13.98,7.96,17.21c4.08,3.44,10.32,5.16,18.72,5.16c15.91,0,23.88-6.45,23.88-19.57c0-5.81-1.51-10.32-4.74-13.55c-3.23-3.01-8.17-5.16-15.06-6.24l-13.98-2.37c-26.88-4.52-40.22-18.28-40.22-41.3c0-13.76,4.52-24.73,13.76-32.7c9.04-7.96,21.07-12.05,36.13-12.05c14.62,0,26.24,3.87,34.85,11.61c8.39,7.75,13.34,18.72,14.41,32.7h-27.1c-0.43-7.09-2.59-12.47-6.24-15.7c-3.66-3.23-9.24-4.94-16.35-4.94c-7.31,0-12.9,1.72-16.57,4.94c-3.66,3.44-5.59,8.17-5.59,13.98c0,5.16,1.72,9.24,4.94,12.26c3.23,3.01,8.39,5.16,15.49,6.45l15.7,2.79c25.59,4.52,38.28,18.5,38.28,41.72c0,14.84-4.74,26.24-14.2,34.2c-9.68,7.96-22.58,11.83-38.71,11.83c-15.91,0-28.4-4.08-37.2-12.05C570.67,145.91,565.73,134.52,564.65,119.46z"/>
  <path fill="url(#gradGreen)" d="M732.52,142.05h8.39v22.58h-12.69c-10.11,0-18.28-3.01-24.09-8.82c-6.02-5.81-9.04-13.55-9.04-23.44V71.49h-15.49V52.8h15.49V30.85l26.45-9.24V52.8h21.51v18.72h-21.51v59.15C721.54,138.18,725.2,142.05,732.52,142.05z"/>
  <path fill="url(#gradGreen)" d="M841.52,91.07v73.56h-25.81v-9.68c-3.66,3.87-7.53,6.67-11.4,8.39c-4.08,1.72-9.04,2.59-15.06,2.59c-11.4,0-20.43-3.01-26.67-9.25s-9.46-14.62-9.46-25.6c0-10.11,3.44-18.06,10.11-23.87s16.13-8.6,28.18-8.6h23.66v-8.82c0-11.83-6.02-17.85-17.85-17.85c-4.94,0-9.04,1.29-11.83,3.66c-3.01,2.59-4.52,6.02-4.52,10.11v0.64h-24.73V85.47c0-10.54,3.66-18.72,11.19-24.95c7.53-6.02,17.42-9.04,30.11-9.04c14.2,0,25.17,3.23,32.69,9.9C837.66,68.07,841.52,77.95,841.52,91.07z M815.07,124.84v-7.96h-19.36c-11.19,0-16.77,4.52-16.77,13.55c0,9.25,5.38,13.98,16.35,13.98c7.09,0,12.05-1.72,15.27-4.94C813.56,136.24,815.07,131.52,815.07,124.84z"/>
  <path fill="url(#gradGreen)" d="M885.95,64.41c2.79-4.74,6.45-8.17,10.97-10.54c4.52-2.37,9.68-3.44,15.49-3.44c3.23,0,6.24,0.22,9.04,0.86v24.95c-4.94-1.51-9.46-2.37-13.34-2.37c-6.45,0-11.61,1.93-15.49,6.02c-4.08,4.08-6.02,10.11-6.02,17.64v67.11h-26.67V52.8h26.03V64.41z"/>
  <path fill="url(#gradGreen)" d="M983.51,142.05h8.39v22.58h-12.69c-10.11,0-18.28-3.01-24.09-8.82c-6.02-5.81-9.04-13.55-9.04-23.44V71.49h-15.49V52.8h15.49V30.85l26.45-9.24V52.8h21.51v18.72h-21.51v59.15C972.53,138.18,976.19,142.05,983.51,142.05z"/>
  <path fill="url(#gradGreen)" d="M1035.83,137.53c3.66,3.66,9.04,5.38,15.91,5.38c5.38,0,9.46-1.08,12.47-3.44c3.01-2.15,4.74-5.16,4.94-9.24l0.22-0.64h25.37v1.08c0,10.54-3.87,19.14-11.83,25.6c-7.96,6.45-18.72,9.68-32.26,9.68c-14.41,0-25.81-4.08-34.2-12.47c-8.39-8.17-12.69-20.87-12.69-38.07v-13.1c0-16.77,4.08-29.47,12.26-37.86s19.36-12.47,33.77-12.47c13.98,0,25.17,4.3,33.56,12.69c8.17,8.39,12.26,21.07,12.26,37.64v14.84h-65.38v3.01C1030.24,128.07,1032.17,133.88,1035.83,137.53z M1030.24,97.74v0.64h38.71V95.6c0-14.2-6.45-21.29-19.14-21.29c-6.24,0-11.19,1.72-14.41,5.38C1031.96,83.33,1030.24,89.36,1030.24,97.74z"/>
  <path fill="url(#gradGreen)" d="M1137.7,64.41c2.79-4.74,6.45-8.17,10.97-10.54c4.52-2.37,9.68-3.44,15.49-3.44c3.23,0,6.24,0.22,9.04,0.86v24.95c-4.94-1.51-9.46-2.37-13.34-2.37c-6.45,0-11.61,1.93-15.49,6.02c-4.08,4.08-6.02,10.11-6.02,17.64v67.11h-26.67V52.8h26.03V64.41z"/>
</svg>
