<svg xmlns="http://www.w3.org/2000/svg" viewBox="0 0 1200 1060" shape-rendering="geometricPrecision">
  <title>VS Logo with Vivlio Starter Outline Garnish (Corrected)</title>
  <defs>
    <linearGradient id="vsGradGreen" x1="428.91" y1="736.31" x2="428.91" y2="15.01" gradientUnits="userSpaceOnUse">
      <stop offset="0" stop-color="#2c893a"/>
      <stop offset="1" stop-color="#7fbf34"/>
    </linearGradient>
    <linearGradient id="vsGradBlue" x1="522.71" y1="435.15" x2="1126.75" y2="435.15" gradientUnits="userSpaceOnUse">
      <stop offset="0" stop-color="#105998"/>
      <stop offset="1" stop-color="#35a7d2"/>
    </linearGradient>
    <linearGradient id="gradBlue" x1="0%" y1="100%" x2="0%" y2="0%" gradientUnits="objectBoundingBox">
      <stop offset="0" style="stop-color:#105998"/>
      <stop offset="1" style="stop-color:#35A7D2"/>
    </linearGradient>
    <linearGradient id="gradGreen" x1="0%" y1="100%" x2="0%" y2="0%" gradientUnits="objectBoundingBox">
      <stop offset="0" style="stop-color:#2C893A"/>
      <stop offset="1" style="stop-color:#7FBF34"/>
    </linearGradient>
  </defs>

  <path fill="url(#vsGradGreen)" d="M518.36,704.14l-12.44,32.08h-156.89L72.71,15.05h178.11l267.16,689.09ZM544.29,637.35l241.25-622.3h-181.76l-149.4,390.49l89.91,231.81Z"/>
  <path fill="url(#vsGradBlue)" d="M904.61,651.01h-318.91l-62.71,163.05h390.41c131.85,0,213.49-95.94,213.49-216.99s-67.05-164.31-119.73-186.91c-52.68-22.56-196.2-75.53-196.2-75.53c-33.33-14.78-54.96-29.83-54.96-60.88c0-31.05,19.45-51.07,68.04-51.07h239.22l55.19-166.24h-300.41l-150.3,393.22c13.88,12.89,36.54,22.05,67.05,33.91c64.44,25.04,153.48,56.41,184.85,68.33c31.37,11.92,34.78,34.88,34.78,50c0,22.18-16.71,49.14-49.82,49.14Z"/>

  <g>
    <path fill="url(#gradBlue)" d="M87.34,965.57l29.14-102.22h29.36L98.47,1011.2h-22.5L31.83,863.35h29.36l26.15,102.22z"/>
    <path fill="url(#gradBlue)" d="M184.31,884.56h-27v-21.21h27V884.56z M184.09,1011.2h-26.35V899.78h26.35V1011.2z"/>
    <path fill="url(#gradBlue)" d="M245.25,970.49l21.43-70.71h28.07l-38.79,111.43h-21.86L201,899.78h28.07L245.25,970.49z"/>
    <path fill="url(#gradBlue)" d="M305.93,977.35V863.35h26.57v112.28c0,4.5,0.85,7.72,2.58,9.64c1.5,1.93,4.29,3,7.93,3h9.01v22.93h-12.22c-10.71,0-19.07-3-24.86-8.79C308.93,996.65,305.93,988.28,305.93,977.35z"/>
    <path fill="url(#gradBlue)" d="M390.87,884.56h-27v-21.21h27V884.56z M390.65,1011.2h-26.35V899.78h26.35V1011.2z"/>
    <path fill="url(#gradBlue)" d="M407.00,965.77v-20.78c0-15.85,4.07-27.64,12.22-35.14c7.93-7.5,19.07-11.35,33-11.35s24.86,3.85,32.78,11.35c7.93,7.5,12,19.29,12,35.14v20.78c0,16.07-4.07,27.86-12,35.36s-18.85,11.35-32.78,11.35s-25.07-3.85-33-11.35C411.07,993.63,407.00,981.84,407.00,965.77z M452.21,922.06c-12.64,0-18.85,7.72-18.85,23.35v20.14c0,15.64,6.21,23.35,18.85,23.35c12.22,0,18.43-7.72,18.43-23.35v-20.14C470.64,929.78,464.43,922.06,452.21,922.06z"/>
    <path fill="url(#gradGreen)" d="M564.8,966.2h26.57c1.07,8.14,3.65,13.93,7.93,17.14c4.07,3.43,10.28,5.14,18.65,5.14c15.85,0,23.79-6.43,23.79-19.5c0-5.79-1.5-10.28-4.72-13.5c-3.21-3-8.14-5.14-15-6.21l-13.93-2.36c-26.79-4.5-40.08-18.21-40.08-41.15c0-13.71,4.5-24.64,13.71-32.57c9.01-7.93,21-12,35.99-12c14.57,0,26.15,3.85,34.72,11.57c8.35,7.72,13.29,18.65,14.36,32.57h-27c-0.43-7.07-2.58-12.43-6.21-15.64c-3.65-3.21-9.21-4.93-16.29-4.93c-7.28,0-12.86,1.71-16.51,4.93c-3.65,3.43-5.57,8.14-5.57,13.93c0,5.14,1.71,9.21,4.93,12.22c3.21,3,8.36,5.14,15.43,6.43l15.64,2.78c25.5,4.5,38.14,18.43,38.14,41.57c0,14.78-4.72,26.15-14.14,34.07c-9.64,7.93-22.5,11.79-38.57,11.79c-15.85,0-28.29-4.07-37.07-12C570.79,992.51,565.87,981.19,564.8,966.2z"/>
    <path fill="url(#gradGreen)" d="M732.04,988.7h8.36v22.5h-12.64c-10.08,0-18.21-3-24-8.79c-6-5.79-9.01-13.5-9.01-23.35v-57.91h-15.43v-18.64h15.43v-21.86l26.35-9.21v31.07h21.43v18.64h-21.43v58.93C721.11,984.85,724.76,988.7,732.04,988.7z"/>
    <path fill="url(#gradGreen)" d="M840.64,937.91v73.29h-25.71v-9.64c-3.65,3.85-7.5,6.65-11.35,8.36c-4.07,1.71-9.01,2.58-15,2.58c-11.35,0-20.36-3-26.57-9.21s-9.43-14.57-9.43-25.5c0-10.08,3.43-18,10.08-23.79s16.07-8.57,28.07-8.57h23.57v-8.79c0-11.79-6-17.78-17.78-17.78c-4.93,0-9,1.29-11.79,3.65s-4.5,6-4.5,10.08v0.64h-24.64V932.3c0-10.5,3.65-18.65,11.15-24.86c7.5-6,17.36-9,30-9c14.15,0,25.08,3.22,32.57,9.86C836.79,915,840.64,924.84,840.64,937.91z M814.28,971.56V963.6h-19.29c-11.15,0-16.71,4.5-16.71,13.5c0,9.21,5.36,13.93,16.29,13.93c7.07,0,12-1.71,15.22-4.93C812.78,982.89,814.28,978.21,814.28,971.56z"/>
    <path fill="url(#gradGreen)" d="M884.91,911.36c2.78-4.72,6.43-8.14,10.93-10.5s9.64-3.43,15.43-3.43c3.21,0,6.21,0.22,9.01,0.86v24.86c-4.93-1.5-9.43-2.36-13.29-2.36c-6.43,0-11.57,1.93-15.43,6c-4.07,4.07-6,10.08-6,17.58v66.86h-26.57v-111.42h25.93V911.36z"/>
    <path fill="url(#gradGreen)" d="M982.1,988.7h8.36v22.5h-12.64c-10.08,0-18.21-3-24-8.79s-9.01-13.5-9.01-23.35v-57.91h-15.43v-18.64h15.43v-21.86l26.35-9.21v31.07h21.43v18.64h-21.43v58.93C971.17,984.85,974.82,988.7,982.1,988.7z"/>
    <path fill="url(#gradGreen)" d="M1034.24,984.19c3.65,3.65,9,5.36,15.85,5.36c5.36,0,9.43-1.07,12.43-3.43c3-2.14,4.72-5.14,4.93-9.21l0.22-0.64h25.28v1.07c0,10.5-3.85,19.07-11.79,25.5s-18.65,9.65-32.14,9.65c-14.36,0-25.71-4.07-34.07-12.43c-8.36-8.14-12.64-20.79-12.64-37.93v-15.86c0-16.71,4.07-29.36,12.22-37.72c8.14-8.36,19.29-12.43,33.65-12.43c13.93,0,25.08,4.29,33.43,12.64s12.22,21,12.22,37.5v14.78h-65.14v3c0,11.57,1.93,17.36,5.57,21.01z M1028.67,944.54v0.64h38.57V942.4c0-14.15-6.43-21.22-19.07-21.22c-6.21,0-11.15,1.71-14.36,5.36C1030.39,930.18,1028.67,936.19,1028.67,944.54z"/>
    <path fill="url(#gradGreen)" d="M1135.74,911.36c2.78-4.72,6.43-8.14,10.93-10.5s9.64-3.43,15.43-3.43c3.21,0,6.21,0.22,9.01,0.86v24.86c-4.93-1.5-9.43-2.36-13.29-2.36c-6.43,0-11.57,1.93-15.43,6c-4.07,4.07-6,10.08-6,17.58v66.86h-26.57v-111.42h25.93V911.36z"/>
  </g>
</svg>
