<svg xmlns="http://www.w3.org/2000/svg" viewBox="0 0 1600 320" shape-rendering="geometricPrecision">
  <title>VS Vivlio Starter Logo</title>
  <defs>
    <linearGradient id="vsGradGreen" x1="139.32" y1="272.49" x2="139.32" y2="20.35" gradientUnits="userSpaceOnUse">
      <stop offset="0" stop-color="#2c893a"/>
      <stop offset="1" stop-color="#7fbf34"/>
    </linearGradient>
    <linearGradient id="vsGradBlue" x1="172.21" y1="167.24" x2="383.31" y2="167.24" gradientUnits="userSpaceOnUse">
      <stop offset="0" stop-color="#105998"/>
      <stop offset="1" stop-color="#35a7d2"/>
    </linearGradient>
    <linearGradient id="gradBlue" x1="420.59" y1="233.31" x2="420.59" y2="87.56" gradientUnits="userSpaceOnUse">
      <stop offset="0" stop-color="#105998"/>
      <stop offset="1" stop-color="#35A7D2"/>
    </linearGradient>
    <linearGradient id="gradGreen" x1="420.59" y1="233.31" x2="420.59" y2="87.56" gradientUnits="userSpaceOnUse">
      <stop offset="0" stop-color="#2C893A"/>
      <stop offset="1" stop-color="#7FBF34"/>
    </linearGradient>
  </defs>

  <!-- VS mark -->
  <path fill="url(#vsGradGreen)" d="M 170.46,261.27 l -4.35,11.21 h -54.84 L 14.81,20.37 h 62.26 l 93.39,240.91 Z M 179.51,237.92 L 263.85,20.35 h -63.54 l -52.22,136.5 31.43,81.06 Z"/>
  <path fill="url(#vsGradBlue)" d="M 305.61,242.67 h -111.48 l -21.92,57 h 136.47 c 46.09,0 74.63,-33.54 74.63,-75.85 s -23.44,-57.44 -41.85,-65.34 c -18.42,-7.89 -68.58,-26.4 -68.58,-26.4 c -11.65,-5.17 -19.21,-10.43 -19.21,-21.28 s 6.8,-17.85 23.79,-17.85 h 83.63 l 19.29,-58.11 h -105.01 l -52.54,137.46 c 4.85,4.51 12.78,7.71 23.44,11.85 22.53,8.75 53.65,19.72 64.62,23.89 10.97,4.17 12.16,12.19 12.16,17.46 0,7.75 -5.84,17.18 -17.42,17.18 Z"/>

  <!-- Vivlio Starter Outline Path -->
  <!-- V -->
  <path fill="url(#gradBlue)" d="M 504.48,188.32 l 28.73,-100.76 h 28.94 L 515.45,233.31 H 493.27 L 446.8,87.56 h 28.94 L 504.48,188.32 z"/>
  <!-- i -->
  <path fill="url(#gradBlue)" d="M 600.07,108.47 h -26.62 V 87.56 h 26.62 V 108.47 z M 599.86,233.31 h -25.98 V 123.47 h 25.98 V 233.31 z"/>
  <!-- v -->
  <path fill="url(#gradBlue)" d="M 660.15,193.17 l 21.12,-69.71 h 27.67 l -38.24,109.84 h -21.55 l -38.02,-109.84 h 27.67 L 660.15,193.17 z"/>
  <!-- l -->
  <path fill="url(#gradBlue)" d="M 719.97,199.94 V 87.56 h 26.19 v 110.68 c 0,4.44 0.84,7.61 2.54,9.51 c 1.48,1.9 4.22,2.96 7.82,2.96 h 8.88 v 22.61 h -12.04 c -10.56,0 -18.8,-2.96 -24.51,-8.66 C 722.92,218.95 719.97,210.7 719.97,199.94 z"/>
  <!-- i -->
  <path fill="url(#gradBlue)" d="M 803.7,108.47 h -26.62 V 87.56 h 26.62 V 108.47 z M 803.48,233.31 h -25.98 V 123.47 h 25.98 V 233.31 z"/>
  <!-- o -->
  <path fill="url(#gradBlue)" d="M 819.6,188.52 V 168.04 c 0,-15.63 4.01,-27.25 12.04,-34.64 c 7.82,-7.39 18.8,-11.19 32.53,-11.19 s 24.51,3.8 32.31,11.19 s 11.83,19.01 11.83,34.64 v 20.49 c 0,15.84 -4.01,27.46 -11.83,34.85 s -18.58,11.19 -32.31,11.19 s -24.72,-3.8 -32.53,-11.19 C 823.62,215.98 819.6,204.36 819.6,188.52 z M 864.17,145.43 c -12.46,0 -18.58,7.61 -18.58,23.02 v 19.85 c 0,15.42 6.12,23.02 18.58,23.02 c 12.04,0 18.17,-7.61 18.17,-23.02 V 168.45 C 882.34,153.04 876.21,145.43 864.17,145.43 z"/>
  <!-- S -->
  <path fill="url(#gradGreen)" d="M 975.16,188.95 h 26.19 c 1.06,8.02 3.6,13.73 7.82,16.9 c 4.01,3.38 10.13,5.07 18.38,5.07 c 15.63,0 23.45,-6.34 23.45,-19.22 c 0,-5.71 -1.48,-10.13 -4.65,-13.3 c -3.17,-2.96 -8.02,-5.07 -14.79,-6.12 l -13.73,-2.33 c -26.4,-4.44 -39.51,-17.95 -39.51,-40.56 c 0,-13.52 4.44,-24.29 13.52,-32.11 c 8.88,-7.82 20.7,-11.83 35.48,-11.83 c 14.36,0 25.77,3.8 34.22,11.4 c 8.24,7.61 13.1,18.38 14.16,32.11 h -26.62 c -0.43,-6.97 -2.54,-12.25 -6.12,-15.42 c -3.6,-3.17 -9.08,-4.85 -16.06,-4.85 c -7.18,0 -12.67,1.69 -16.27,4.85 c -3.6,3.38 -5.49,8.02 -5.49,13.73 c 0,5.07 1.69,9.08 4.85,12.04 c 3.17,2.96 8.24,5.07 15.21,6.34 l 15.42,2.74 c 25.13,4.44 37.59,18.17 37.59,40.98 c 0,14.57 -4.65,25.77 -13.94,33.58 c -9.51,7.82 -22.18,11.62 -38.02,11.62 c -15.63,0 -27.89,-4.01 -36.54,-11.83 C 981.07,214.92 976.21,203.73 975.16,188.95 z"/>
  <!-- t -->
  <path fill="url(#gradGreen)" d="M 1140.02,211.13 h 8.24 v 22.18 h -12.46 c -9.93,0 -17.95,-2.96 -23.66,-8.66 c -5.91,-5.71 -8.88,-13.3 -8.88,-23.02 V 141.84 h -15.21 V 123.47 h 15.21 V 101.92 l 25.98,-9.08 v 30.63 h 21.12 v 18.38 h -21.12 v 58.09 C 1129.24,207.33 1132.84,211.13 1140.02,211.13 z"/>
  <!-- a -->
  <path fill="url(#gradGreen)" d="M 1247.07,161.06 v 72.25 h -25.35 v -9.51 c -3.6,3.8 -7.39,6.55 -11.19,8.24 c -4.01,1.69 -8.88,2.54 -14.79,2.54 c -11.19,0 -20.07,-2.96 -26.19,-9.08 s -9.29,-14.36 -9.29,-25.13 c 0,-9.93 3.38,-17.74 9.93,-23.45 s 15.84,-8.45 27.67,-8.45 h 23.24 v -8.66 c 0,-11.62 -5.91,-17.53 -17.53,-17.53 c -4.85,0 -8.88,1.27 -11.62,3.6 c -2.96,2.54 -4.44,5.91 -4.44,9.93 v 0.63 h -24.29 V 155.57 c 0,-10.35 3.6,-18.38 10.99,-24.51 c 7.39,-5.91 17.11,-8.88 29.57,-8.88 c 13.94,0 24.72,3.17 32.11,9.72 C 1243.27,138.47 1247.07,148.17 1247.07,161.06 z M 1221.1,194.23 v -7.82 h -19.01 c -10.99,0 -16.47,4.44 -16.47,13.3 c 0,9.08 5.28,13.73 16.06,13.73 c 6.97,0 11.83,-1.69 15,-4.85 C 1219.61,205.42 1221.1,200.78 1221.1,194.23 z"/>
  <!-- r -->
  <path fill="url(#gradGreen)" d="M 1290.71,134.87 c 2.74,-4.65 6.34,-8.02 10.78,-10.35 c 4.44,-2.33 9.51,-3.38 15.21,-3.38 c 3.17,0 6.12,0.21 8.88,0.84 v 24.51 c -4.85,-1.48 -9.29,-2.33 -13.1,-2.33 c -6.34,0 -11.4,1.9 -15.21,5.91 c -4.01,4.01 -5.91,9.93 -5.91,17.33 v 65.91 h -26.19 V 123.47 h 25.56 V 134.87 z"/>
  <!-- t -->
  <path fill="url(#gradGreen)" d="M 1386.52,211.13 h 8.24 v 22.18 h -12.46 c -9.93,0 -17.95,-2.96 -23.66,-8.66 c -5.91,-5.71 -8.88,-13.3 -8.88,-23.02 V 141.84 h -15.21 V 123.47 h 15.21 V 101.92 l 25.98,-9.08 v 30.63 h 21.12 v 18.38 h -21.12 v 58.09 C 1375.75,207.33 1379.34,211.13 1386.52,211.13 z"/>
  <!-- e -->
  <path fill="url(#gradGreen)" d="M 1437.91,206.69 c 3.6,3.6 8.88,5.28 15.63,5.28 c 5.28,0 9.29,-1.06 12.25,-3.38 c 2.96,-2.11 4.65,-5.07 4.85,-9.08 l 0.21,-0.63 h 24.92 v 1.06 c 0,10.35 -3.8,18.8 -11.62,25.13 c -7.82,6.34 -18.38,9.51 -31.68,9.51 c -14.16,0 -25.35,-4.01 -33.58,-12.25 c -8.24,-8.02 -12.46,-20.49 -12.46,-37.39 V 171.62 c 0,-16.47 4.01,-28.94 12.04,-37.18 c 8.02,-8.24 19.01,-12.25 33.17,-12.25 c 13.73,0 24.72,4.22 32.95,12.46 c 8.02,8.24 12.04,20.7 12.04,36.97 v 14.57 h -64.21 v 2.96 C 1432.42,197.4 1434.32,203.1 1437.91,206.69 z M 1432.42,167.61 v 0.63 h 38.02 v -2.74 c 0,-13.94 -6.34,-20.91 -18.8,-20.91 c -6.12,0 -10.99,1.69 -14.16,5.28 C 1434.12,153.45 1432.42,159.38 1432.42,167.61 z"/>
  <!-- r -->
  <path fill="url(#gradGreen)" d="M 1537.96,134.87 c 2.74,-4.65 6.34,-8.02 10.78,-10.35 c 4.44,-2.33 9.51,-3.38 15.21,-3.38 c 3.17,0 6.12,0.21 8.88,0.84 v 24.51 c -4.85,-1.48 -9.29,-2.33 -13.1,-2.33 c -6.34,0 -11.4,1.9 -15.21,5.91 c -4.01,4.01 -5.91,9.93 -5.91,17.33 v 65.91 h -26.19 V 123.47 h 25.56 V 134.87 z"/>
</svg>
