<svg xmlns="http://www.w3.org/2000/svg" viewBox="0 0 900 300" shape-rendering="geometricPrecision" text-rendering="geometricPrecision">
  <title>VS Vivlio Starter Logo (Flattened)</title>
  <defs>
    <linearGradient id="vsGradGreen" x1="132.07" y1="257.01" x2="132.07" y2="18.01" gradientUnits="userSpaceOnUse">
      <stop offset="0" stop-color="#2c893a"/>
      <stop offset="1" stop-color="#7fbf34"/>
    </linearGradient>
    <linearGradient id="vsGradBlue" x1="163.25" y1="157.25" x2="363.36" y2="157.25" gradientUnits="userSpaceOnUse">
      <stop offset="0" stop-color="#105998"/>
      <stop offset="1" stop-color="#35a7d2"/>
    </linearGradient>
    <linearGradient id="gradBlue" x1="610.26" y1="130.32" x2="610.26" y2="18.83" gradientUnits="userSpaceOnUse">
      <stop offset="0" stop-color="#105998"/>
      <stop offset="1" stop-color="#35A7D2"/>
    </linearGradient>
    <linearGradient id="gradGreen" x1="661.88" y1="263.24" x2="661.88" y2="150.15" gradientUnits="userSpaceOnUse">
      <stop offset="0" stop-color="#2C893A"/>
      <stop offset="1" stop-color="#7FBF34"/>
    </linearGradient>
  </defs>

  <path fill="url(#vsGradGreen)" d="M161.58,246.38l-4.12,10.63h-51.99L14.04,18.02h59.02l88.53,228.37ZM170.17,224.25L250.12,18.01h-60.23l-49.51,129.40 29.79,76.84Z"/>
  <path fill="url(#vsGradBlue)" d="M289.70,228.75h-105.68l-20.78,54.03h129.37c43.69,0.00 70.74,-31.79 70.74,-71.90s-22.22,-54.45 -39.67,-61.93c-17.46,-7.48 -65.01,-25.03 -65.01,-25.03 -11.04,-4.90 -18.21,-9.88 -18.21,-20.17s6.44,-16.92 22.55,-16.92h79.27l18.29,-55.09h-99.54l-49.80,130.30c4.60,4.27 12.11,7.31 22.22,11.24 21.36,8.30 50.86,18.69 61.25,22.64 10.40,3.95 11.52,11.56 11.52,16.55 0.00,7.35 -5.54,16.29 -16.51,16.29Z"/>

  <path fill="url(#gradBlue)" d="M479.00,95.24l21.79,-76.41h21.95L487.33,129.36H470.51L435.26,18.83h21.95L479.00,95.24z"/>
  <path fill="url(#gradBlue)" d="M551.50,34.69h-20.19V18.83h20.19V34.69z M551.33,129.36h-19.70V46.06h19.70V129.36z"/>
  <path fill="url(#gradBlue)" d="M597.06,98.92l16.02,-52.86h20.99l-29.00,83.30h-16.34l-28.83,-83.30h20.99L597.06,98.92z"/>
  <path fill="url(#gradBlue)" d="M642.42,104.05V18.83h19.86v83.94c0.00,3.37 0.64,5.77 1.93,7.21c1.12,1.44 3.20,2.24 5.93,2.24h6.73v17.14h-9.13c-8.01,0.00 -14.26,-2.24 -18.58,-6.57C644.66,118.47 642.42,112.22 642.42,104.05z"/>
  <path fill="url(#gradBlue)" d="M705.92,34.69h-20.19V18.83h20.19V34.69z M705.75,129.36h-19.70V46.06h19.70V129.36z"/>
  <path fill="url(#gradBlue)" d="M717.97,95.40V79.86c0.00,-11.85 3.04,-20.66 9.13,-26.27c5.93,-5.61 14.26,-8.49 24.67,-8.49s18.58,2.88 24.51,8.49s8.97,14.42 8.97,26.27v15.54c0.00,12.01 -3.04,20.82 -8.97,26.43s-14.09,8.49 -24.51,8.49s-18.75,-2.88 -24.67,-8.49C721.02,116.22 717.97,107.41 717.97,95.40zM751.77,62.72c-9.45,0.00 -14.09,5.77 -14.09,17.46v15.06c0.00,11.69 4.64,17.46 14.09,17.46c9.13,0.00 13.78,-5.77 13.78,-17.46V80.18C765.55,68.49 760.91,62.72 751.77,62.72z"/>

  <path fill="url(#gradGreen)" d="M435.26,228.64h19.86c0.80,6.08 2.73,10.41 5.93,12.82c3.04,2.56 7.69,3.84 13.94,3.84c11.85,0.00 17.78,-4.81 17.78,-14.58c0.00,-4.33 -1.12,-7.69 -3.53,-10.09c-2.40,-2.24 -6.08,-3.84 -11.21,-4.64l-10.41,-1.76c-20.02,-3.37 -29.96,-13.62 -29.96,-30.76c0.00,-10.25 3.37,-18.42 10.25,-24.35c6.73,-5.93 15.70,-8.97 26.91,-8.97c10.89,0.00 19.55,2.88 25.95,8.65c6.25,5.77 9.94,13.94 10.74,24.35h-20.19c-0.32,-5.28 -1.93,-9.29 -4.64,-11.69c-2.73,-2.40 -6.88,-3.68 -12.18,-3.68c-5.44,0.00 -9.61,1.28 -12.34,3.68c-2.73,2.56 -4.17,6.08 -4.17,10.41c0.00,3.84 1.28,6.88 3.68,9.13c2.40,2.24 6.25,3.84 11.54,4.81l11.69,2.08c19.06,3.37 28.51,13.78 28.51,31.08c0.00,11.05 -3.53,19.55 -10.57,25.47c-7.21,5.93 -16.82,8.81 -28.83,8.81c-11.85,0.00 -21.15,-3.04 -27.71,-8.97C439.75,248.34 436.06,239.86 435.26,228.64z"/>
  <path fill="url(#gradGreen)" d="M560.29,245.46h6.25v16.82h-9.45c-7.53,0.00 -13.62,-2.24 -17.94,-6.57c-4.48,-4.33 -6.73,-10.09 -6.73,-17.46V192.92h-11.54V178.98h11.54V162.64l19.70,-6.88v23.23h16.02v13.94h-16.02v44.05C552.12,242.58 554.84,245.46 560.29,245.46z"/>
  <path fill="url(#gradGreen)" d="M641.47,207.50v54.79h-19.22v-7.21c-2.73,2.88 -5.61,4.97 -8.49,6.25c-3.04,1.28 -6.73,1.93 -11.21,1.93c-8.49,0.00 -15.22,-2.24 -19.86,-6.88s-7.05,-10.89 -7.05,-19.06c0.00,-7.53 2.56,-13.45 7.53,-17.78s12.01,-6.41 20.99,-6.41h17.62v-6.57c0.00,-8.81 -4.48,-13.29 -13.29,-13.29c-3.68,0.00 -6.73,0.96 -8.81,2.73c-2.24,1.93 -3.37,4.48 -3.37,7.53v0.48h-18.42V203.33c0.00,-7.85 2.73,-13.94 8.33,-18.58c5.61,-4.48 12.98,-6.73 22.43,-6.73c10.57,0.00 18.75,2.40 24.35,7.37C638.59,190.36 641.47,197.72 641.47,207.50zM621.77,232.65v-5.93h-14.42c-8.33,0.00 -12.49,3.37 -12.49,10.09c0.00,6.88 4.00,10.41 12.18,10.41c5.28,0.00 8.97,-1.28 11.38,-3.68C620.65,241.13 621.77,237.62 621.77,232.65z"/>
  <path fill="url(#gradGreen)" d="M674.57,187.63c2.08,-3.53 4.81,-6.08 8.17,-7.85c3.37,-1.76 7.21,-2.56 11.54,-2.56c2.40,0.00 4.64,0.16 6.73,0.64v18.58c-3.68,-1.12 -7.05,-1.76 -9.94,-1.76c-4.81,0.00 -8.65,1.44 -11.54,4.48c-3.04,3.04 -4.48,7.53 -4.48,13.14v49.98h-19.86V178.98h19.38V187.63z"/>
  <path fill="url(#gradGreen)" d="M747.22,245.46h6.25v16.82h-9.45c-7.53,0.00 -13.62,-2.24 -17.94,-6.57c-4.48,-4.33 -6.73,-10.09 -6.73,-17.46V192.92h-11.54V178.98h11.54V162.64l19.70,-6.88v23.23h16.02v13.94h-16.02v44.05C739.05,242.58 741.78,245.46 747.22,245.46z"/>
  <path fill="url(#gradGreen)" d="M786.20,242.10c2.73,2.73 6.73,4.00 11.85,4.00c4.00,0.00 7.05,-0.80 9.29,-2.56c2.24,-1.60 3.53,-3.84 3.68,-6.88l0.16,-0.48h18.90v0.80c0.00,7.85 -2.88,14.26 -8.81,19.06c-5.93,4.81 -13.94,7.21 -24.03,7.21c-10.74,0.00 -19.22,-3.04 -25.47,-9.29c-6.25,-6.08 -9.45,-15.54 -9.45,-28.36V215.50c0.00,-12.49 3.04,-21.95 9.13,-28.20c6.08,-6.25 14.42,-9.29 25.15,-9.29c10.41,0.00 18.75,3.20 24.99,9.45c6.08,6.25 9.13,15.70 9.13,28.03v11.05h-48.70v2.24C782.03,235.05 783.47,239.38 786.20,242.10zM782.03,212.46v0.48h28.83v-2.08c0.00,-10.57 -4.81,-15.86 -14.26,-15.86c-4.64,0.00 -8.33,1.28 -10.74,4.00C783.32,201.73 782.03,206.22 782.03,212.46z"/>
  <path fill="url(#gradGreen)" d="M862.07,187.63c2.08,-3.53 4.81,-6.08 8.17,-7.85c3.37,-1.76 7.21,-2.56 11.54,-2.56c2.40,0.00 4.64,0.16 6.73,0.64v18.58c-3.68,-1.12 -7.05,-1.76 -9.94,-1.76c-4.81,0.00 -8.65,1.44 -11.54,4.48c-3.04,3.04 -4.48,7.53 -4.48,13.14v49.98h-19.86V178.98h19.38V187.63z"/>
</svg>
