<svg width="320" height="256" viewBox="0 0 320 256" version="1.1" xmlns="http://www.w3.org/2000/svg" xmlns:xlink="http://www.w3.org/1999/xlink" xml:space="preserve" xmlns:serif="http://www.serif.com/">
<defs>
<linearGradient id="gradV" x1="0" y1="0" x2="1" y2="1">
<stop offset="0%" style="stop-color:#A4F138;stop-opacity:1" />
<stop offset="100%" style="stop-color:#50B51E;stop-opacity:1" />
</linearGradient>

    <linearGradient id="gradS" x1="1" y1="0" x2="0" y2="1">
        <stop offset="0%" style="stop-color:#63D5F9;stop-opacity:1" />
        <stop offset="100%" style="stop-color:#2974F4;stop-opacity:1" />
    </linearGradient>
    
    <filter id="bevelV" x="-10%" y="-10%" width="120%" height="120%">
        <feGaussianBlur in="SourceAlpha" stdDeviation="0.5" result="blur" />
        <feDiffuseLighting in="blur" surfaceScale="5" diffuseConstant="1" kernelUnitLength="1,1" result="diffuse">
            <fePointLight x="-1000" y="-1000" z="500" />
        </feDiffuseLighting>
        <feSpecularLighting in="blur" surfaceScale="5" specularConstant="1" specularExponent="20" kernelUnitLength="1,1" result="specular">
            <fePointLight x="-1000" y="-1000" z="500" />
        </feSpecularLighting>
        <feComposite in="diffuse" in2="specular" operator="arithmetic" k1="0" k2="1" k3="1" k4="0" result="lit" />
        <feComposite in="lit" in2="SourceGraphic" operator="arithmetic" k1="0.1" k2="0.6" k3="1" k4="0" result="composite" />
    </filter>
    
    <filter id="bevelS" x="-10%" y="-10%" width="120%" height="120%">
        <feGaussianBlur in="SourceAlpha" stdDeviation="1.0" result="blur" />
        <feDiffuseLighting in="blur" surfaceScale="5" diffuseConstant="1.2" kernelUnitLength="1,1" result="diffuse">
            <fePointLight x="1000" y="-1000" z="800" />
        </feDiffuseLighting>
        <feSpecularLighting in="blur" surfaceScale="5" specularConstant="1.5" specularExponent="10" kernelUnitLength="1,1" result="specular">
            <fePointLight x="1000" y="-1000" z="800" />
        </feSpecularLighting>
        <feComposite in="diffuse" in2="specular" operator="arithmetic" k1="0" k2="1" k3="1" k4="0" result="lit" />
        <feComposite in="lit" in2="SourceGraphic" operator="arithmetic" k1="0.1" k2="0.5" k3="1.1" k4="0" result="composite" />
    </filter>
    
    <filter id="shadow" x="-20%" y="-20%" width="140%" height="140%">
        <feDropShadow dx="3" dy="3" stdDeviation="3" flood-color="#000" flood-opacity="0.2" />
    </filter>
    
    <clipPath id="clipVRight">
        <path d="M123,20 L157,20 L187,143 L153,143 Z" />
    </clipPath>
</defs>

<g filter="url(#shadow)">
    <path d="M22,20 L56,20 L115,223 L81,223 Z" fill="url(#gradV)" filter="url(#bevelV)" />
    
    <path d="M123,20 L157,20 L187,143 L153,143 Z" fill="url(#gradV)" filter="url(#bevelV)" clip-path="url(#clipVRight)" />
    
    <path d="M174,22 C170,22 165,23 161,25 L156,27 L168,69 L173,67 C174,67 175,67 176,66 C182,63 189,61 195,61 C210,61 223,74 223,89 C223,94 221,99 219,104 L216,110 L273,110 L276,104 C281,95 283,86 283,76 C283,46 259,22 229,22 L174,22 Z M156,128 L170,128 C173,128 176,128 179,129 C187,131 193,137 193,145 C193,153 187,159 179,161 C176,162 173,162 170,162 L150,162 L137,222 L163,222 C184,222 201,205 201,184 C201,173 196,164 189,158 C196,152 201,143 201,132 C201,111 184,94 163,94 L145,94 L156,128 Z" fill="url(#gradS)" filter="url(#bevelS)" />
    
    <path d="M153,143 L142,106 C143,105 144,104 146,103 L141,89 L132,126 L123,163 Z" fill="url(#gradV)" filter="url(#bevelV)" />
</g>
</svg>